<svg width="200" height="60" viewBox="0 0 200 60" xmlns="http://www.w3.org/2000/svg">
  <!-- Background -->
  <rect width="200" height="60" rx="8" fill="#1e40af"/>
  
  <!-- Shopping cart icon -->
  <g transform="translate(15, 15)">
    <path d="M7 18c-1.1 0-2 .9-2 2s.9 2 2 2 2-.9 2-2-.9-2-2-2zM1 2v2h2l3.6 7.59-1.35 2.44c-.16.28-.25.61-.25.96 0 1.1.9 2 2 2h12v-2H7.42c-.14 0-.25-.11-.25-.25l.03-.12L8.1 13h7.45c.75 0 1.41-.41 1.75-1.03L19.4 6H5.21l-.94-2H1zm16 16c-1.1 0-2 .9-2 2s.9 2 2 2 2-.9 2-2-.9-2-2-2z" fill="white"/>
  </g>
  
  <!-- Text -->
  <text x="50" y="25" font-family="Arial, sans-serif" font-size="18" font-weight="bold" fill="white">Eshop</text>
  <text x="50" y="42" font-family="Arial, sans-serif" font-size="10" fill="#93c5fd">Developer Skeleton</text>
  
  <!-- Decorative elements -->
  <circle cx="170" cy="15" r="3" fill="#3b82f6" opacity="0.7"/>
  <circle cx="180" cy="25" r="2" fill="#60a5fa" opacity="0.5"/>
  <circle cx="175" cy="35" r="2.5" fill="#93c5fd" opacity="0.6"/>
</svg>
